<svg xmlns="http://www.w3.org/2000/svg" width="12" height="11" viewBox="0 0 12 11">
  <metadata><?xpacket begin="﻿" id="W5M0MpCehiHzreSzNTczkc9d"?>
<x:xmpmeta xmlns:x="adobe:ns:meta/" x:xmptk="Adobe XMP Core 5.6-c142 79.160924, 2017/07/13-01:06:39        ">
   <rdf:RDF xmlns:rdf="http://www.w3.org/1999/02/22-rdf-syntax-ns#">
      <rdf:Description rdf:about=""/>
   </rdf:RDF>
</x:xmpmeta><?xpacket end="w"?></metadata>
<defs>
    <style>
      .cls-3 {
        fill: #fff;
        fill-rule: evenodd;
      }
    </style>
  </defs>
  <path id="Arrow" class="cls-3" d="M1334.38,4500.38l3.85,4.12-3.9,4.17h0a0.791,0.791,0,0,0-.21.54,0.763,0.763,0,0,0,.74.79,0.7,0.7,0,0,0,.51-0.22h0l4.41-4.71h0a0.877,0.877,0,0,0,.22-0.57h0a0.837,0.837,0,0,0-.22-0.57h0l-4.41-4.71h0a0.721,0.721,0,0,0-.51-0.22,0.763,0.763,0,0,0-.74.79A0.792,0.792,0,0,0,1334.38,4500.38Zm-5.65,3.33h9.31a0.792,0.792,0,0,1,0,1.58h-9.31A0.792,0.792,0,0,1,1328.73,4503.71Z" transform="translate(-1328 -4499)"/>
</svg>
