<svg xmlns="http://www.w3.org/2000/svg" width="16" height="14" viewBox="0 0 16 14">
  <metadata><?xpacket begin="﻿" id="W5M0MpCehiHzreSzNTczkc9d"?>
<x:xmpmeta xmlns:x="adobe:ns:meta/" x:xmptk="Adobe XMP Core 5.6-c142 79.160924, 2017/07/13-01:06:39        ">
   <rdf:RDF xmlns:rdf="http://www.w3.org/1999/02/22-rdf-syntax-ns#">
      <rdf:Description rdf:about=""/>
   </rdf:RDF>
</x:xmpmeta>
                                                                                                    
                                                                                                    
                                                                                                    
                                                                                                    
                                                                                                    
                                                                                                    
                                                                                                    
                                                                                                    
                                                                                                    
                                                                                                    
                                                                                                    
                                                                                                    
                                                                                                    
                                                                                                    
                                                                                                    
                                                                                                    
                                                                                                    
                                                                                                    
                                                                                                    
                                                                                                    
                           
<?xpacket end="w"?></metadata>
<defs>
    <style>
      .cls-1 {
        fill: #02f;
        fill-rule: evenodd;
      }
    </style>
  </defs>
  <path id="Arrow" class="cls-1" d="M413.5,2630.24l-5.132-5.24,5.2-5.31h0a1,1,0,0,0-.7-1.69,0.981,0.981,0,0,0-.68.28h0l-5.877,6h0a1.008,1.008,0,0,0-.3.72h0a0.991,0.991,0,0,0,.3.72h0l5.877,6h0a0.974,0.974,0,0,0,.677.28,0.992,0.992,0,0,0,.98-1A1.01,1.01,0,0,0,413.5,2630.24Zm7.526-4.24H408.612a1,1,0,0,1,0-2h12.409A1,1,0,0,1,421.021,2626Z" transform="translate(-406 -2618)"/>
</svg>
