<svg xmlns="http://www.w3.org/2000/svg" width="16" height="14" viewBox="0 0 16 14">
  <metadata><?xpacket begin="﻿" id="W5M0MpCehiHzreSzNTczkc9d"?>
<x:xmpmeta xmlns:x="adobe:ns:meta/" x:xmptk="Adobe XMP Core 5.6-c142 79.160924, 2017/07/13-01:06:39        ">
   <rdf:RDF xmlns:rdf="http://www.w3.org/1999/02/22-rdf-syntax-ns#">
      <rdf:Description rdf:about=""/>
   </rdf:RDF>
</x:xmpmeta><?xpacket end="w"?></metadata>
<defs>
    <style>
      .cls-6 {
        fill: #02f;
        fill-rule: evenodd;
      }
    </style>
  </defs>
  <path id="Arrow" class="cls-6" d="M1505.5,2630.24l5.14-5.24-5.2-5.31h0a1,1,0,0,1,.7-1.69,0.959,0.959,0,0,1,.68.28h0l5.88,6h0a1.029,1.029,0,0,1,.3.72h0a1.011,1.011,0,0,1-.3.72h0l-5.88,6h0a0.977,0.977,0,0,1-.68.28,0.992,0.992,0,0,1-.98-1A1.041,1.041,0,0,1,1505.5,2630.24Zm-7.52-4.24h12.41a1,1,0,0,0,0-2h-12.41A1,1,0,0,0,1497.98,2626Z" transform="translate(-1497 -2618)"/>
</svg>
