<svg xmlns="http://www.w3.org/2000/svg" width="16" height="11" viewBox="0 0 16 11">
  <metadata><?xpacket begin="﻿" id="W5M0MpCehiHzreSzNTczkc9d"?>
<x:xmpmeta xmlns:x="adobe:ns:meta/" x:xmptk="Adobe XMP Core 5.6-c142 79.160924, 2017/07/13-01:06:39        ">
   <rdf:RDF xmlns:rdf="http://www.w3.org/1999/02/22-rdf-syntax-ns#">
      <rdf:Description rdf:about=""/>
   </rdf:RDF>
</x:xmpmeta>
                                                                                                    
                                                                                                    
                                                                                                    
                                                                                                    
                                                                                                    
                                                                                                    
                                                                                                    
                                                                                                    
                                                                                                    
                                                                                                    
                                                                                                    
                                                                                                    
                                                                                                    
                                                                                                    
                                                                                                    
                                                                                                    
                                                                                                    
                                                                                                    
                                                                                                    
                                                                                                    
                           
<?xpacket end="w"?></metadata>
<defs>
    <style>
      .cls-1 {
        fill: #4d4d4d;
        fill-rule: evenodd;
      }
    </style>
  </defs>
  <path id="Mail_icon" data-name="Mail icon" class="cls-1" d="M1055.91,4506.93l4.87-4.71a0.756,0.756,0,0,1,.22.53v9.5a0.754,0.754,0,0,1-.2.51Zm-10.66-4.74a0.739,0.739,0,0,1,.5-0.19h14.5a0.739,0.739,0,0,1,.5.19l-7.75,6.06Zm-0.05,10.57a0.754,0.754,0,0,1-.2-0.51v-9.5a0.756,0.756,0,0,1,.22-0.53l4.87,4.71Zm7.8-3.01,2.03-1.97,5.73,5.01a0.718,0.718,0,0,1-.51.21h-14.5a0.718,0.718,0,0,1-.51-0.21l5.73-5.01Z" transform="translate(-1045 -4502)"/>
</svg>
